PathFileType	4	(X/Y/Z)	/Users/itak/Documents/Research/Walk-IL/dataset/trc/00125_00007.trc
DataRate	CameraRate	NumFrames	NumMarkers	Units	OrigDataRate	OrigDataStartFrame	OrigNumFrames
100.000000	100.000000	4	53	mm	100.000000	363	727
Frame#	Time	RPSI			LPSI			L3			STRN			T10			C7			CLAV			RBAK			LBAK			LSHO			LUPA			LAEL			LAOL			LWTS			LWPS			LFRA			LIFD			LHPS			LHTS			RSHO			RUPA			RAEL			RAOL			RWTS			RWPS			RFRA			RIFD			RHTS			RHPS			RBHD			LFHD			RFHD			LBHD			LHIP			RHIP			RASI			LASI			LKNE			LTHI			LANK			LTIP			LTOE			LMT1			LMT5			LHEE			RKNE			RTHI			RANK			RTIP			RTOE			RMT1			RMT5			RHEE			
		X1	Y1	Z1	X2	Y2	Z2	X3	Y3	Z3	X4	Y4	Z4	X5	Y5	Z5	X6	Y6	Z6	X7	Y7	Z7	X8	Y8	Z8	X9	Y9	Z9	X10	Y10	Z10	X11	Y11	Z11	X12	Y12	Z12	X13	Y13	Z13	X14	Y14	Z14	X15	Y15	Z15	X16	Y16	Z16	X17	Y17	Z17	X18	Y18	Z18	X19	Y19	Z19	X20	Y20	Z20	X21	Y21	Z21	X22	Y22	Z22	X23	Y23	Z23	X24	Y24	Z24	X25	Y25	Z25	X26	Y26	Z26	X27	Y27	Z27	X28	Y28	Z28	X29	Y29	Z29	X30	Y30	Z30	X31	Y31	Z31	X32	Y32	Z32	X33	Y33	Z33	X34	Y34	Z34	X35	Y35	Z35	X36	Y36	Z36	X37	Y37	Z37	X38	Y38	Z38	X39	Y39	Z39	X40	Y40	Z40	X41	Y41	Z41	X42	Y42	Z42	X43	Y43	Z43	X44	Y44	Z44	X45	Y45	Z45	X46	Y46	Z46	X47	Y47	Z47	X48	Y48	Z48	X49	Y49	Z49	X50	Y50	Z50	X51	Y51	Z51	X52	Y52	Z52	X53	Y53	Z53	

364	3.63	336.3955383300781	1109.545043945312	-529.8999633789062	341.2513732910156	1100.652587890625	-396.08447265625	345.7874145507812	1144.1875	-461.6518249511719	109.9240951538086	1328.721923828125	-446.4407653808594	360.4484252929688	1295.185180664062	-465.3544616699219	314.5003967285156	1582.02490234375	-420.2528076171875	138.9533386230469	1464.265625	-427.65087890625	372.2720031738281	1414.721923828125	-530.7266235351562	328.6784362792969	1550.557495117188	-321.9495544433594	249.8393402099609	1523.194702148438	-249.4910278320312	292.5418701171875	1389.732788085938	-194.9286193847656	312.9995422363281	1172.706298828125	-190.0180206298828	369.1369934082031	1172.3251953125	-258.1033630371094	228.3341064453125	911.5296020507812	-238.1326446533203	314.3460998535156	890.8253173828125	-228.3575897216797	308.3102111816406	1055.494750976562	-192.8881225585938	226.2123565673828	720.6260986328125	-275.5108032226562	291.868896484375	813.721435546875	-229.177734375	222.5219421386719	820.021484375	-231.9828491210938	246.3483123779297	1582.966796875	-596.7661743164062	259.569580078125	1519.923828125	-671.359375	259.6311950683594	1234.3974609375	-747.6251831054688	280.9997253417969	1217.338012695312	-656.0775146484375	100.0835876464844	1000.7587890625	-757.2788696289062	170.4491729736328	985.3780517578125	-799.0031127929688	228.9007415771484	1165.371826171875	-771.6273803710938	66.66851806640625	808.4136962890625	-766.4273681640625	60.69500350952148	897.0822143554688	-777.8948364257812	124.2429351806641	890.480224609375	-815.26025390625	221.4199523925781	1763.872802734375	-473.2734985351562	127.5721664428711	1783.181274414062	-274.1689758300781	71.57572174072266	1811.580810546875	-389.1588134765625	285.7545776367188	1740.1279296875	-357.9363403320312	236.3163146972656	1003.764343261719	-294.5330200195312	218.1850128173828	1018.598083496094	-657.9246826171875	128.6999816894531	1082.575073242188	-606.3680419921875	133.8707427978516	1068.721069335938	-340.1378479003906	-0.7675538659095764	558.4138793945312	-335.4620971679688	100.1059494018555	674.7464599609375	-300.8387145996094	5.890147686004639	43.99722290039062	-412.9829711914062	48.64616775512695	289.3472595214844	-360.6475524902344	-219.3868408203125	79.8951416015625	-386.4599914550781	-161.1795654296875	67.19390869140625	-444.2917785644531	-101.0333480834961	56.44956970214844	-348.56787109375	48.77812957763672	41.75394439697266	-494.9344787597656	280.6040954589844	527.2384033203125	-657.0669555664062	220.8439025878906	805.0689086914062	-664.4006958007812	464.1084899902344	34.19430923461914	-658.6111450195312	327.2598266601562	397.728515625	-673.3687133789062	223.3578643798828	40.08341217041016	-636.6832885742188	280.5500793457031	34.44681549072266	-588.324951171875	334.9153442382812	35.88555145263672	-701.1696166992188	516.3792114257812	38.92910385131836	-602.5846557617188	
365	3.64	327.5584716796875	1108.0029296875	-529.3482666015625	332.5242919921875	1099.056762695312	-395.486572265625	337.067138671875	1142.725830078125	-461.2109375	101.2459869384766	1327.008544921875	-445.0248107910156	351.7442321777344	1293.587158203125	-465.2230834960938	305.9571228027344	1580.343505859375	-419.4866333007812	130.4169158935547	1462.505615234375	-426.0226745605469	363.3013610839844	1413.321166992188	-530.6533203125	320.7544250488281	1548.776489257812	-321.3929443359375	242.3997497558594	1521.235229492188	-248.4341583251953	285.8447875976562	1387.694702148438	-194.4542541503906	307.0862426757812	1170.73095703125	-190.2795562744141	362.4501953125	1170.742065429688	-259.0191955566406	223.6698760986328	908.97802734375	-238.11572265625	310.1510009765625	888.9662475585938	-229.1100311279297	303.1507263183594	1053.517211914062	-193.3384857177734	223.2298126220703	718.1193237304688	-275.7767028808594	288.3197631835938	811.6705322265625	-229.9223937988281	218.9697265625	817.3463745117188	-232.0444641113281	236.766845703125	1581.579467773438	-595.6328735351562	249.3388214111328	1518.633056640625	-670.434326171875	247.6205596923828	1233.125	-747.2531127929688	270.0610656738281	1215.888305664062	-656.0262451171875	86.78126525878906	1000.410888671875	-755.5223388671875	156.4389038085938	984.669189453125	-798.0386352539062	216.2617645263672	1164.286987304688	-771.0531616210938	51.92999649047852	808.3524169921875	-764.5380859375	46.55031967163086	897.0670166015625	-775.8861694335938	109.5463333129883	890.1057739257812	-813.930419921875	211.8729705810547	1761.1767578125	-473.573974609375	121.1849899291992	1782.788452148438	-273.2273254394531	63.52894592285156	1810.145874023438	-387.5763549804688	278.1575927734375	1738.826293945312	-359.0062255859375	227.9285430908203	1002.263549804688	-293.6949462890625	209.2885894775391	1016.885864257812	-657.0869750976562	119.6373977661133	1080.825439453125	-605.4806518554688	125.4005813598633	1067.018188476562	-339.1520385742188	-4.733903408050537	555.4019775390625	-332.2789306640625	95.58643341064453	671.6530151367188	-298.7760620117188	-21.05223274230957	42.00386810302734	-406.3191223144531	33.98825454711914	285.689208984375	-356.2274780273438	-244.1964263916016	86.17784881591797	-377.1937561035156	-187.6202545166016	71.18544006347656	-435.7355651855469	-126.2861938476562	58.74085998535156	-340.625732421875	20.6774959564209	38.05178833007812	-488.7791442871094	275.2702026367188	526.109619140625	-656.3339233398438	213.2165985107422	803.4805297851562	-663.2604370117188	463.9939270019531	34.89734268188477	-658.2042846679688	323.4708557128906	397.0604553222656	-672.7766723632812	223.2275085449219	39.94952392578125	-636.673828125	280.3973999023438	34.37041091918945	-588.3277587890625	334.9055786132812	35.88174438476562	-701.104248046875	516.2627563476562	39.92770767211914	-602.2241821289062	
366	3.65	318.5625610351562	1106.457275390625	-528.525390625	323.5256652832031	1097.3623046875	-394.5587158203125	328.1620483398438	1141.21728515625	-460.489990234375	92.48467254638672	1325.3095703125	-443.4629516601562	342.9472045898438	1291.93994140625	-464.7899169921875	297.2982177734375	1578.5888671875	-418.4520568847656	121.8040924072266	1460.761108398438	-424.26171875	354.2777404785156	1411.848876953125	-530.2900390625	312.6806030273438	1546.966674804688	-320.5823364257812	234.7475433349609	1519.282470703125	-247.1757965087891	278.8789367675781	1385.65869140625	-193.7643890380859	300.97998046875	1168.777709960938	-190.3626251220703	355.6059875488281	1169.190551757812	-259.7251281738281	218.9462585449219	906.4415283203125	-237.9291076660156	305.8288879394531	887.138427734375	-229.7308502197266	297.8717041015625	1051.564697265625	-193.6054534912109	220.1659088134766	715.69091796875	-275.9192199707031	284.6425476074219	809.6505126953125	-230.5567932128906	215.2988433837891	814.7095947265625	-231.9800872802734	227.2276763916016	1580.141845703125	-594.3073120117188	239.1786041259766	1517.281127929688	-669.2926025390625	235.7233276367188	1231.768188476562	-746.5283813476562	259.00830078125	1214.285278320312	-655.52734375	73.61016082763672	999.9868774414062	-753.4801635742188	142.5841674804688	983.860107421875	-796.7064208984375	203.7604827880859	1163.112915039062	-770.1278686523438	37.35136032104492	808.2129516601562	-762.3587646484375	32.54867172241211	896.96875	-773.6058959960938	95.05009460449219	889.6373291015625	-812.2626342773438	202.4148559570312	1758.578857421875	-473.6455383300781	114.7167129516602	1782.236572265625	-272.1724853515625	55.48830413818359	1808.689453125	-385.8627014160156	270.5365905761719	1737.508666992188	-359.8469848632812	219.3857879638672	1000.7548828125	-292.6563415527344	200.2931823730469	1015.214294433594	-656.0536499023438	110.5200729370117	1079.1015625	-604.4196166992188	116.6875915527344	1065.290161132812	-338.0041198730469	-8.710893630981445	552.2571411132812	-329.2330627441406	90.99965667724609	668.4729614257812	-296.8074035644531	-46.6123161315918	40.75364685058594	-399.0537719726562	19.95140075683594	282.4487915039062	-351.5991821289062	-267.5124816894531	92.622802734375	-368.2436218261719	-212.4803314208984	75.46347808837891	-427.2711181640625	-150.2229156494141	61.52552795410156	-332.5666809082031	-5.845055103302002	35.07672119140625	-481.87646484375	269.7681274414062	525.0404663085938	-655.5684204101562	205.4866943359375	801.966064453125	-662.044189453125	463.8546447753906	35.72318267822266	-657.8042602539062	319.5608215332031	396.4712829589844	-672.173095703125	223.0932769775391	39.80581283569336	-636.6624755859375	280.2412414550781	34.30800628662109	-588.34521484375	334.8900146484375	35.87027359008789	-701.0323486328125	516.122802734375	41.15388870239258	-601.87646484375	
367	3.66	309.3979797363281	1104.934936523438	-527.4420776367188	314.2691955566406	1095.58935546875	-393.3178405761719	319.0724182128906	1139.67236328125	-459.4993286132812	83.61920928955078	1323.652465820312	-441.7425231933594	334.0462951660156	1290.251342773438	-464.0504150390625	288.5341491699219	1576.772827148438	-417.1578979492188	113.0981216430664	1459.0634765625	-422.3714904785156	345.1976928710938	1410.30322265625	-529.635986328125	304.4712219238281	1545.14990234375	-319.5250549316406	226.8937530517578	1517.368774414062	-245.7221832275391	271.6403198242188	1383.657836914062	-192.8565826416016	294.6647644042969	1166.880004882812	-190.2592926025391	348.5896301269531	1167.699462890625	-260.2107238769531	214.1698608398438	903.9456176757812	-237.5565185546875	301.3751220703125	885.3748779296875	-230.2097625732422	292.4532775878906	1049.669067382812	-193.68212890625	216.9970855712891	713.365478515625	-275.9293212890625	280.8315124511719	807.6948852539062	-231.0647888183594	211.5007476806641	812.1382446289062	-231.778076171875	217.7436676025391	1578.6552734375	-592.8057861328125	229.1015319824219	1515.8603515625	-667.9449462890625	223.951416015625	1230.3212890625	-745.45947265625	247.8511352539062	1212.5400390625	-654.5958862304688	60.57081985473633	999.4845581054688	-751.1629028320312	128.9009399414062	982.9468994140625	-795.0149536132812	191.4116668701172	1161.846069335938	-768.8619384765625	22.94693946838379	807.9937133789062	-759.8896484375	18.66662216186523	896.7825317382812	-771.0520629882812	80.75276947021484	889.0670776367188	-810.2613525390625	193.0605926513672	1756.126342773438	-473.4554443359375	108.1772842407227	1781.549438476562	-270.9566650390625	47.45515823364258	1807.236450195312	-383.9848022460938	262.8934326171875	1736.179321289062	-360.4232788085938	210.6530456542969	999.239990234375	-291.4002380371094	191.1723022460938	1013.607604980469	-654.8193359375	101.3077163696289	1077.430297851562	-603.173583984375	107.7422790527344	1063.55908203125	-336.68017578125	-12.86143779754639	549.0643920898438	-326.3481750488281	86.21731567382812	665.2891845703125	-294.8962097167969	-70.45554351806641	40.10663604736328	-391.3751525878906	6.600539207458496	279.6196899414062	-346.825927734375	-289.1403198242188	98.97898101806641	-359.6380615234375	-235.5379791259766	79.79372406005859	-418.9562683105469	-172.5518188476562	64.63462829589844	-324.4862670898438	-30.50522232055664	32.69751358032227	-474.4274597167969	264.05712890625	524.04541015625	-654.7647094726562	197.6321258544922	800.5492553710938	-660.7587280273438	463.6911010742188	36.70392990112305	-657.4194946289062	315.490478515625	395.9762573242188	-671.5486450195312	222.9490509033203	39.65068817138672	-636.6507568359375	280.0788269042969	34.25718688964844	-588.3751220703125	334.8629455566406	35.85257339477539	-700.951416015625	515.948486328125	42.63118362426758	-601.535888671875	
